<?xml version="1.0" standalone="no"?><!DOCTYPE svg PUBLIC "-//W3C//DTD SVG 1.1//EN" "http://www.w3.org/Graphics/SVG/1.1/DTD/svg11.dtd"><svg t="1585031755642" class="icon" viewBox="0 0 1024 1024" version="1.1" xmlns="http://www.w3.org/2000/svg" p-id="3290" xmlns:xlink="http://www.w3.org/1999/xlink" width="200" height="200"><defs><style type="text/css"></style></defs><path d="M984.064 362.24L534.656 39.04a35.968 35.968 0 0 0-42.624 0L39.872 362.24c-14.784 10.24-7.424 33.536 11.136 33.536h90.816v577.6c0 10.24 8.32 18.624 18.56 18.624h704.128c10.24 0 18.56-8.384 18.56-18.624V395.776h90.816c17.6 0 24.96-23.296 10.176-33.536z" fill="#FFCA28" p-id="3291"></path><path d="M438.336 693.888L714.88 992H443.328L290.048 842.88l148.288-149.056zM586.56 470.4l296.448 326.528 0.064 176.512a18.688 18.688 0 0 1-14.272 18.112l-4.288 0.512h-139.904L586.56 842.88l30.4-29.824L438.4 619.392l148.224-149.12z" fill="#FCB503" p-id="3292"></path><path d="M438.336 842.944H290.048v-149.056H438.4zM438.336 470.336h148.224v149.056H438.4zM734.848 842.944H586.56v-149.056h148.288z" fill="#FFFFFF" p-id="3293"></path></svg>